<?xml version="1.0" encoding="UTF-8" standalone="no"?>
<svg xmlns="http://www.w3.org/2000/svg" width="512" height="512" viewBox="0 0 512 512">
<!-- ... existing code ... -->
<defs>
  <linearGradient id="g" x1="0" y1="0" x2="1" y2="1">
    <stop offset="0%" stop-color="#667EEA"/>
    <stop offset="100%" stop-color="#764BA2"/>
  </linearGradient>
  <filter id="shadow" x="-20%" y="-20%" width="140%" height="140%">
    <feDropShadow dx="0" dy="6" stdDeviation="8" flood-color="#000" flood-opacity="0.25"/>
  </filter>
</defs>
<rect width="512" height="512" rx="96" fill="url(#g)"/>

<!-- Abstract building (real estate) -->
<g transform="translate(128,110)" fill="none" stroke="#FFFFFF" stroke-width="18" stroke-linejoin="round" stroke-linecap="round" filter="url(#shadow)">
  <!-- Left tower -->
  <rect x="0" y="60" width="100" height="220" rx="10"/>
  <path d="M0 120 H100" opacity="0.9"/>
  <path d="M0 180 H100" opacity="0.8"/>

  <!-- Right tower -->
  <rect x="156" y="0" width="100" height="280" rx="10"/>
  <path d="M156 70 H256" opacity="0.9"/>
  <path d="M156 140 H256" opacity="0.8"/>
  <path d="M156 210 H256" opacity="0.7"/>

  <!-- Roof lines to unify towers -->
  <path d="M-12 60 L50 20 L112 60"/>
  <path d="M144 0 L206 -40 L268 0"/>
</g>

<!-- Token/chain ring overlay (tokenization) -->
<g transform="translate(256,256)">
  <circle r="88" fill="none" stroke="#FFFFFF" stroke-width="16" opacity="0.9"/>
  <circle r="58" fill="none" stroke="#FFFFFF" stroke-width="12" opacity="0.6"/>
  <circle r="32" fill="#FFFFFF" opacity="0.12"/>
</g>

<!-- Subtle underline bar -->
<rect x="136" y="420" width="240" height="12" rx="6" fill="#FFFFFF" opacity="0.2"/>
</svg>
